<?xml version="1.0" encoding="UTF-8" standalone="no"?>
<svg
   xmlns:dc="http://purl.org/dc/elements/1.1/"
   xmlns:cc="http://creativecommons.org/ns#"
   xmlns:rdf="http://www.w3.org/1999/02/22-rdf-syntax-ns#"
   xmlns:svg="http://www.w3.org/2000/svg"
   xmlns="http://www.w3.org/2000/svg"
   xmlns:sodipodi="http://sodipodi.sourceforge.net/DTD/sodipodi-0.dtd"
   xmlns:inkscape="http://www.inkscape.org/namespaces/inkscape"
   version="1.1"
   width="33"
   height="32"
   viewBox="0 0 33 32"
   id="svg875"
   sodipodi:docname="email.svg"
   inkscape:version="1.0.1 (3bc2e813f5, 2020-09-07)">
  <metadata
     id="metadata881">
    <rdf:RDF>
      <cc:Work
         rdf:about="">
        <dc:format>image/svg+xml</dc:format>
        <dc:type
           rdf:resource="http://purl.org/dc/dcmitype/StillImage" />
      </cc:Work>
    </rdf:RDF>
  </metadata>
  <defs
     id="defs879" />
  <sodipodi:namedview
     pagecolor="#ffffff"
     bordercolor="#666666"
     borderopacity="1"
     objecttolerance="10"
     gridtolerance="10"
     guidetolerance="10"
     inkscape:pageopacity="0"
     inkscape:pageshadow="2"
     inkscape:window-width="1920"
     inkscape:window-height="1057"
     id="namedview877"
     showgrid="false"
     inkscape:zoom="27.8125"
     inkscape:cx="9.5786517"
     inkscape:cy="16"
     inkscape:window-x="-8"
     inkscape:window-y="-8"
     inkscape:window-maximized="1"
     inkscape:current-layer="svg875" />
  <g
     id="g871" />
  <path
     stroke="white"
     d="M0.064 24.032v-18.432q0-0.032 0.096-0.608l10.848 9.28-10.816 10.4q-0.128-0.448-0.128-0.64zM1.504 3.712q0.224-0.096 0.544-0.096h29.216q0.288 0 0.576 0.096l-10.88 9.312-1.44 1.152-2.848 2.336-2.848-2.336-1.44-1.152zM1.536 25.92l10.912-10.464 4.224 3.424 4.224-3.424 10.912 10.464q-0.256 0.096-0.544 0.096h-29.216q-0.256 0-0.512-0.096zM22.336 14.272l10.816-9.28q0.096 0.288 0.096 0.608v18.432q0 0.288-0.096 0.64z"
     fill="#000000"
     id="path873"
     style="fill:#ffffff;fill-opacity:1;stroke:none;stroke-opacity:1" />
</svg>
